<?xml version="1.0" encoding="utf-8"?>
<!-- Generator: Adobe Illustrator 22.1.0, SVG Export Plug-In . SVG Version: 6.00 Build 0)  -->
<svg version="1.1" id="Layer_1" xmlns:serif="http://www.serif.com/"
	 xmlns="http://www.w3.org/2000/svg" xmlns:xlink="http://www.w3.org/1999/xlink" x="0px" y="0px" viewBox="0 0 1920 1080"
	 style="enable-background:new 0 0 1920 1080;" xml:space="preserve">
<style type="text/css">
	.st0{fill:url(#SVGID_1_);}
	.st1{fill:#BEDCEC;}
	.st2{fill:#00AD63;}
	.st3{fill:#EDEEF2;}
	.st4{fill:#ECECEC;}
	.st5{fill:#FEFEFE;}
	.st6{fill:#00B72B;}
	.st7{fill:url(#SVGID_2_);}
	.st8{fill:#FFFFFF;}
	.st9{fill:#00D268;}
	.st10{fill:#1C2858;}
	.st11{fill:url(#SVGID_3_);}
	.st12{fill:#00A978;}
	.st13{fill:#99DDC9;}
	.st14{fill:#A0A1AF;}
	.st15{fill:#1428FE;}
	.st16{fill:#D9DAEC;}
	.st17{fill:#53C88D;}
	.st18{fill:#4E66DE;}
	.st19{fill:url(#SVGID_4_);}
	.st20{fill:#213285;}
	.st21{fill:#FEB891;}
	.st22{fill:url(#SVGID_5_);}
	.st23{fill:#4257C3;}
	.st24{fill:url(#SVGID_6_);}
	.st25{fill:#3C4BBA;}
	.st26{fill:#FC9C66;}
	.st27{fill:#657CE6;}
	.st28{fill:url(#SVGID_7_);}
	.st29{fill:#4E5161;}
	.st30{fill:#3F4253;}
	.st31{fill:#9396A4;}
	.st32{fill:#7C829E;}
	.st33{fill:url(#SVGID_8_);}
	.st34{fill:#D98951;}
	.st35{fill:#DF9E66;}
	.st36{fill:#1C223C;}
	.st37{fill:#C7C62B;}
	.st38{fill:#C7AD2B;}
	.st39{fill:#F7F7F7;}
	.st40{fill:#3C3D41;}
	.st41{fill:#1C9F9C;}
	.st42{fill:#494A50;}
	.st43{fill:#FF7F48;}
	.st44{fill:#0D187B;}
	.st45{fill:#D95734;}
	.st46{fill:#909090;}
	.st47{fill:#2BC7C3;}
</style>
<linearGradient id="SVGID_1_" gradientUnits="userSpaceOnUse" x1="0" y1="1080.0111" x2="1" y2="1080.0111" gradientTransform="matrix(1010.83 -351.507 -351.507 -1010.83 379990.9375 1092559.75)">
	<stop  offset="0" style="stop-color:#DDEFF8"/>
	<stop  offset="1" style="stop-color:#EFFAFF"/>
</linearGradient>
<path class="st0" d="M1487,973.9c0,0,273.6-269.7,231.4-535.9c-42.1-266.2-361.7-180.4-550.8-57.9c-189.1,122.5-320.1,35.2-533-48
	C225.1,172.2,17.2,779.5,317.7,973.9H1487z"/>
<g>
	<path class="st1" d="M925.1,974.2c28.2-45.5,61.2-108,69.8-160.5c14.7-95-69.2-37.7-102.9,64.4c0,0,31.8-133.8-13.5-230.3
		c-45.3-96.5-66.2,102.5-41,230.3c0,0-45.9-229.2-129.2-298.3c-80.2-67.2-34.3,153.3,54.5,309.7c5.5,8.7,8,13.9,8,13.9
		c-2.4-4.6-5.5-9.2-8-13.9C742,856,683.2,770.8,594.4,730.8c-111.5-50.5,1.8,136.5,145.2,217.9c0,0-69.8-32.4-129.8-15.1
		c-22,6.4-15.3,22.4,5.5,41.2C698.5,974.8,835.7,974.6,925.1,974.2z"/>
	<path class="st2" d="M659.2,974.6c-10.1-16.3-22-38.8-25.1-57.6c-5.3-34.1,24.9-13.6,37,23.1c0,0-11.4-48.1,4.8-82.7
		c16.3-34.7,23.8,36.8,14.7,82.7c0,0,16.5-82.3,46.4-107.2c28.8-24.1,12.3,55.1-19.6,111.3c-2,3.1-2.9,5-2.9,5c0.9-1.7,2-3.3,2.9-5
		c7.5-12,28.6-42.6,60.5-57c40-18.2-0.7,49-52.1,78.3c0,0,25.1-11.6,46.6-5.4c7.9,2.3,5.5,8-2,14.8
		C740.6,974.8,691.3,974.7,659.2,974.6z"/>
	<path class="st3" d="M1268.7,974.7c-4.1-6.6-8.9-15.6-10.1-23.2c-2.1-13.7,10-5.5,14.9,9.3c0,0-4.6-19.4,1.9-33.3
		c6.6-14,9.6,14.8,5.9,33.3c0,0,6.6-33.1,18.7-43.1c11.6-9.7,5,22.2-7.9,44.8c-0.8,1.3-1.2,2-1.2,2c0.4-0.7,0.8-1.3,1.2-2
		c3-4.8,11.5-17.2,24.4-23c16.1-7.3-0.3,19.7-21,31.5c0,0,10.1-4.7,18.8-2.2c3.2,0.9,2.2,3.2-0.8,6
		C1301.4,974.8,1281.6,974.8,1268.7,974.7z"/>
	<path class="st4" d="M1137.2,974.6c0,0-1.7-55.5-31.7-81.8c-29.9-26.3-73.1-1.9-77.7-34.3c-4.6-32.4,17.4-27.2,29.7-20.8
		c12.3,6.3,27.4-6.3,21.1-27c-6.3-20.6-44.4-36.4-31.2-89.7c13.2-53.3,66.7-39.5,81.3-6.4c14.6,33.1-6.6,105.8,35.1,138.5
		c41.7,32.7,45.1,87.4,24.2,120.7L1137.2,974.6z"/>
	<path class="st5" d="M1083.9,685.4c-5.1,19.2-3.5,39.9,0.4,60.2c3.5-5.6,7.7-10.8,12.2-15.7c8.1-9,17.5-16.7,28-22.9
		c0.4,0.5,0.7,1,1,1.5c-15.7,9.1-29.3,22-39.1,37.3c-0.5,0.8-1.2,1.8-1.5,2.5c0.1,0.9,0.4,1.7,0.5,2.6
		c9.6,46.6,30.4,91.1,56.6,130.5c0.3,0.3,0.6,0.6,0.6,0.6c0.1,0.2,0.1,0.4,0.2,0.6c0.1,0.2,0.2,0.4,0.4,0.6
		c13.6,20.4,26.7,42.3,31.9,65.9c1.8,8.4,2.9,17.5,0.1,25l-2.1,0c0.7-1.9,1.5-5.2,1.8-8.2c1-15.9-5.5-31.7-12.8-46.8
		c-6.3-12.8-14-24.7-21.8-36.8c-10.2-9.9-25.3-13.7-39.6-15.4c-24.1-2.9-47.5-9.9-71-16.3c-0.9-0.2-1.8-0.5-2.4-0.6
		c0.1-0.6,0.1-1.3,0.1-1.9l0,0c1,0.1,1.8,0.4,2.7,0.7c24.5,6.7,48.8,13.9,74.3,16.6c11.6,1.3,23.3,4.8,32.6,11.7
		c-1.8-2.9-3.7-5.7-5.5-8.7c-8.5-14-16.4-28.5-23.4-43.4c-0.1,0-0.4-0.1-0.7-0.3c-11.1-9-22.6-17.5-34.6-24.7
		c-0.8-1.2-1.8-2.3-2.7-3.5c12.7,7.4,24.9,16.1,36.5,25.2c-10.5-23.3-18.7-47.5-23.4-72.5c-0.2-0.2-0.3-0.5-0.2-1
		c-0.9-4.7-1.6-9.3-2.2-14c-2.1-16.2-2.7-32.8,1.3-48.6C1082.6,685.5,1083.2,685.5,1083.9,685.4z M1028,848.6
		C1028,848.5,1028,848.6,1028,848.6z M1028,848.6C1027.8,848.3,1027.9,848.5,1028,848.6z"/>
	<path class="st6" d="M227.7,823.5c0,0,0,10.7,11.3,16.8c11.3,6,17.8-1.1,20.2,2.6c0,0,3.9-9.9-6.6-19.4
		C242.2,814.1,232.2,818,227.7,823.5z"/>
	<path class="st6" d="M217.2,875.3c0,0,5.5,37.5-43.1,27.9c0,0,1.7-1.9,5.5-11.5C183.4,881.9,199.9,868.4,217.2,875.3z"/>
	<path class="st6" d="M198.5,753.9c0,0,7.7-13.6,0-19.3C190.8,728.9,192.3,745.8,198.5,753.9z"/>
	<path class="st6" d="M189.3,764.4c0,0-12.5-12.2-15.2-3.5C171.4,769.4,189.3,764.4,189.3,764.4z"/>
	<path class="st6" d="M193.3,774.6c0,0-15,6.9-7.2,11.6C193.9,790.8,193.3,774.6,193.3,774.6z"/>
	<path class="st6" d="M208.4,761.8c0,0,13.9-1.8,12.6-7.8C219.6,747.9,208.6,755.7,208.4,761.8z"/>
	<circle class="st6" cx="196.8" cy="763.3" r="3.5"/>
	<path d="M217.2,828.8c1.8-10.8,4.6-21.5,2.9-33.1c0,0-1.5-7.8-3.7-12.2c-3.2-6.2-8.5-11.2-14.7-14.6c-0.5-0.3-1-0.5-1.7-0.5
		c-1.9,0.5-2.1,2.6,0.6,4.1c10,5.8,16.1,16.8,16.4,30c0.2,11.5-3.5,22.7-4.6,34.2c-0.1,2-0.2,4.9-0.2,4.9c0,11.6,5.6,22.1,12.7,31.5
		c-1.2-0.3-2.4-0.4-3.5-0.4c-9.5,0.2-17.1,8-22.4,14.8c-0.1,0.2-0.8,1.3-0.4,2.2c0.5,1.1,2.3,1.4,3.1,0.3c0.2-0.3,0.2-0.3,0.5-0.6
		c0.8-1.1,1.8-2.3,2.7-3.3c0.8-0.9,1.6-1.7,2.4-2.6c0.7-0.6,1.3-1.2,2-1.8c0.5-0.4,1-0.8,1.5-1.2c5.5-4.2,14.2-6.7,19.9-0.2l0.1,0
		c0.8,1,1.6,1.9,2.5,2.9c18.3,20.7,39.5,38.8,52.3,64c3.9,7.7,7.9,16.3,6.2,25c-0.8,4.1,1.7,3.5,2.6,2.8c0.6-0.4,0.9-1.6,0.9-1.6
		c0.2-1,0.2-1.2,0.3-1.7c0.8-7.6-1.9-15.4-4.9-22.2c-13.9-31.3-43.6-53.3-63.5-79.4c-6.9-9-12-19.7-11.2-31.7c0-0.9,0.1-1.8,0.2-2.7
		c0,0,0,0,0,0c3.3-5.4,9.1-9.3,15.6-9.6c8.4-0.4,16.1,4.1,22.5,8.9c0,0,0.7,0.5,1.4,0.3c1.6-0.3,2.1-2.3,0.1-3.8
		c-6.8-4.9-14.5-9-22.8-9.1c-0.2,0-0.2,0-0.4,0C226.9,822.6,221.4,824.9,217.2,828.8z"/>
	
		<linearGradient id="SVGID_2_" gradientUnits="userSpaceOnUse" x1="0" y1="1080.0338" x2="1" y2="1080.0338" gradientTransform="matrix(-79.1875 -218.03 -218.03 79.1875 235839.6875 -84532.0313)">
		<stop  offset="0" style="stop-color:#B2E3FC"/>
		<stop  offset="1" style="stop-color:#BBDCEE"/>
	</linearGradient>
	<path class="st7" d="M261.1,975.7c0,0-18.9-26.8-19-61.9c-0.2-35,54.7-23.7,43.7-51c-11-27.3-37.8-61.4-13.4-88.1
		c24.4-26.7,81-7.2,76.1,44.8c-4.5,48.6,15.7,63.2,47.5,81.9c31.8,18.6,53.4,39.8,37.2,74.3H261.1z"/>
	<path class="st8" d="M313.2,814.1c-4.8-13.2-10-26.3-15.4-39.2c0,0-0.5-2.3-2.5-2.1c-2.9,0.9-1,3.2-0.2,5.2
		c4.6,11.1,9.1,22.2,13.3,33.4c-3.8-3.1-7.7-6.3-11.5-9.5c0,0-0.5-0.5-1.3-0.4c-3.2,0.4-1.8,2.6-1,3.2c5.4,4.4,10.8,8.9,16.2,13.3
		c0.1,0,0.1,0.1,0.1,0.1c4.1,11.3,7.8,22.7,11.1,34.5c0.9,3.4,2.2,6.8,2,10.1c-0.1,2.2-4,0.1-7.5-0.8c-1.5-0.4-3.1-1.7-5.5-0.2
		c-1,0.6-1.6,2.2-1.6,2.2c-0.7,3.8,0.9,6.8,2.1,10.1c5.5,14.6,12.6,28.5,19.7,42.5c-7.3-2.6-14.3-6.3-21.1-10.5c0,0-0.5-0.3-1-0.3
		c-1,0.1-1.1,0.4-1.4,0.7c-1.4,1.8,2.3,3.8,5.4,5.6c6.5,3.7,13.3,7.1,20.5,9.1c4,8,8,16.1,11.7,24.3c4.3,10,8.5,20.1,11.3,30.6
		c0,0,1.1,1.9,2.5,1.2c1.3-0.6,0.8-2.8,0.7-3.1c-0.1-0.5-0.1-0.5-0.3-1c-5.1-18-13.1-35-21.5-51.8c0,0,0.1,0,0.1-0.1
		c0.4-0.5,0.5-1.2,0.2-1.8c0.3-1.3,0.5-3,0.6-4.4c0.7-6.5,1.5-13.1,3.3-19.4c0,0,0-2.4-1.9-2.3c-1,0.1-1.6,1-1.9,2.1
		c-1.7,6.6-2.6,13.5-3.2,20.3c-6.8-13.4-13.6-26.6-19.2-40.3c-0.1-0.4-0.1-0.4-0.3-0.7c-1.2-3.1-2.9-6.3-2.7-9.7
		c0-0.6,0.6-0.1,1.2,0.1c4.8,1,10.7,4.5,12.9-0.1c0,0,0.5-1.4,0.6-2.5c0-1.2-0.1-1.4-0.2-2.1c-1.4-11.3-5.7-22.1-9.7-33.5
		c-1-3-2.1-6-3.1-9.1c3.7-1.9,7-7,8.5-10.3c0.8-1.6,1.3-4.1,1.3-4.1c0.3-2.2-0.7-2.1-1.9-2.1c-2.5,0.2-2.2,4.6-4.6,7.9
		C316.6,811.2,315,812.8,313.2,814.1z"/>
	<path class="st9" d="M405.8,975.7c0,0-7.3-24.1-5.6-42.7c1.6-18.6,25.3,7.2,25.3,7.2s-9.8-19.6-12.5-38.8
		c-2.7-19.3,19.4-13.4,33.2,19.5c0,0,0.8-30.6,9.6-37.9c8.7-7.3,35.1,59.5,31.1,92.7H405.8z"/>
</g>
<g>
	<path class="st10" d="M582.2,525.9c0,0-4.1-301.4-3-325.6c9.6-13.3,287.4-9.1,386.9-11.6c99.5-2.4,259.8,0.2,270.8,1.4
		c6.2,20.4,8.9,292.1,9.7,336.5L582.2,525.9z"/>
	
		<linearGradient id="SVGID_3_" gradientUnits="userSpaceOnUse" x1="0" y1="1079.9982" x2="1" y2="1079.9982" gradientTransform="matrix(521.8879 -269.5901 -269.5901 -521.8879 291818.0625 564137.1875)">
		<stop  offset="0" style="stop-color:#1427FF"/>
		<stop  offset="1" style="stop-color:#00A978"/>
	</linearGradient>
	<path class="st11" d="M1160.8,246.7c-10.1,2.2-20.3,4.4-30.4,6.5c0,0-2.3,0.2-3.4-1.2c-1.4-1.8-0.7-4.8,2-5.4
		c12.2-2.6,24.3-5.3,36.5-7.8l2.7-0.6c0.3,0,0.1,0,0.7,0c0.1,0,0.2,0,0.4,0.1h0.1l0.1,0.1c0.2,0.1,0.3,0.1,0.5,0.2l0.6,0.3l0.9,0.9
		l0.5,1.2v0.7c0.2,0.8,0.4,1.7,0.5,2.6c1.6,10.6,3.4,21.3,3.8,32c0.1,1.8-0.4,3.6-2,4.3c-2.3,1-4.7-0.6-4.8-4.1
		c-0.4-8.8-1.6-17.5-3-26.2c-23.3,31.6-49.5,61-76.4,89.8c-13.2,14.1-29.4,26.9-49.2,26.2c-29.1-1-52.1-29.2-84-36.3
		c-7.2-1.6-14.8-2.4-21.9-0.8c-12.7,2.8-22.5,12.9-31,23c-23.7,28-40.3,62.5-68.1,87.4c-14.3,12.9-32.9,22.3-52.7,20.7
		c-16.2-1.4-31.1-9.6-44.6-18.7c-19.8-13.2-44.8-20.4-67.1-10.3c-18.2,8.3-32.1,24.4-40.4,41.8c0,0,0.1,1.5-3.3,2l-1.3-0.3l-1.1-0.8
		l-0.7-1.1l-0.2-1.3l0.3-1.3c4.5-9.5,10.9-18.2,18-25.9c15.7-16.9,38.9-28.1,63.2-23.9c16.4,2.8,30.7,12.5,44.4,20.9
		c17.1,10.6,37.8,16.5,57.8,8.3c19.9-8.1,34.4-25.3,47-42c15.6-20.6,28.7-43.2,45.8-62.5c10.7-12.1,23.5-22.9,39.9-23.5
		c29.5-1.1,56.3,21.9,80.5,32.7c11.3,5,24.6,6.8,36.3,2c15.3-6.3,26.5-19.8,37.9-32.2C1118.3,299.3,1141.1,274.1,1160.8,246.7z"/>
	<path class="st12" d="M1290.7,340.3c0-6.4-5.2-11.6-11.6-11.6c-19.4,0-58.2,0-77.5,0c-6.4,0-11.6,5.2-11.6,11.6c0,1.8,0,3.7,0,5.6
		c0,6.4,5.2,11.6,11.6,11.6c19.4,0,58.2,0,77.5,0c6.4,0,11.6-5.2,11.6-11.6C1290.7,344.1,1290.7,342.2,1290.7,340.3z"/>
	<circle class="st8" cx="1208.1" cy="342.5" r="6.1"/>
	<path class="st8" d="M1277.5,342.1c0-0.8-0.3-1.6-0.9-2.1c-0.6-0.6-1.3-0.9-2.1-0.9c-9.5,0-38.8,0-48.3,0c-0.8,0-1.6,0.3-2.1,0.9
		c-0.6,0.6-0.9,1.3-0.9,2.1c0,0,0,0,0,0c0,0.8,0.3,1.6,0.9,2.1c0.6,0.6,1.3,0.9,2.1,0.9c9.5,0,38.8,0,48.3,0c0.8,0,1.6-0.3,2.1-0.9
		C1277.2,343.7,1277.5,342.9,1277.5,342.1C1277.5,342.1,1277.5,342.1,1277.5,342.1z"/>
	<path class="st13" d="M1290.7,380.6c0-6.4-5.2-11.6-11.6-11.6c-19.4,0-58.2,0-77.5,0c-6.4,0-11.6,5.2-11.6,11.6c0,1.8,0,3.7,0,5.6
		c0,6.4,5.2,11.6,11.6,11.6c19.4,0,58.2,0,77.5,0c6.4,0,11.6-5.2,11.6-11.6C1290.7,384.3,1290.7,382.4,1290.7,380.6z"/>
	<circle class="st8" cx="1208.1" cy="382.8" r="6.1"/>
	<path class="st8" d="M1277.5,382.4c0-0.8-0.3-1.6-0.9-2.1c-0.6-0.6-1.3-0.9-2.1-0.9c-9.5,0-38.8,0-48.3,0c-0.8,0-1.6,0.3-2.1,0.9
		c-0.6,0.6-0.9,1.3-0.9,2.1c0,0,0,0,0,0c0,0.8,0.3,1.6,0.9,2.1c0.6,0.6,1.3,0.9,2.1,0.9c9.5,0,38.8,0,48.3,0c0.8,0,1.6-0.3,2.1-0.9
		C1277.2,384,1277.5,383.2,1277.5,382.4C1277.5,382.4,1277.5,382.4,1277.5,382.4z"/>
	<path class="st13" d="M1290.7,420.9c0-6.4-5.2-11.6-11.6-11.6c-19.4,0-58.2,0-77.5,0c-6.4,0-11.6,5.2-11.6,11.6c0,1.8,0,3.7,0,5.6
		c0,6.4,5.2,11.6,11.6,11.6c19.4,0,58.2,0,77.5,0c6.4,0,11.6-5.2,11.6-11.6C1290.7,424.6,1290.7,422.7,1290.7,420.9z"/>
	<circle class="st8" cx="1208.1" cy="423.1" r="6.1"/>
	<path class="st8" d="M1277.5,422.7c0-0.8-0.3-1.6-0.9-2.1c-0.6-0.6-1.3-0.9-2.1-0.9c-9.5,0-38.8,0-48.3,0c-0.8,0-1.6,0.3-2.1,0.9
		c-0.6,0.6-0.9,1.3-0.9,2.1c0,0,0,0,0,0c0,0.8,0.3,1.6,0.9,2.1c0.6,0.6,1.3,0.9,2.1,0.9c9.5,0,38.8,0,48.3,0c0.8,0,1.6-0.3,2.1-0.9
		C1277.2,424.3,1277.5,423.5,1277.5,422.7C1277.5,422.7,1277.5,422.7,1277.5,422.7z"/>
	<circle class="st8" cx="941.4" cy="325.1" r="11.1"/>
	<circle class="st8" cx="695.3" cy="421.8" r="11.1"/>
	<path class="st8" d="M1054.5,440.5c2.7,0.3,2.6,1.1,3.1,2.2c0.9,2.1-0.7,4.8-3.1,4.9c-9.2,0.6-19.2,0.4-28.7,0.6
		c-4.6,0.1-10.4,2.5-12.9-1.2c-1.7-2.4,0.7-6.6,4.2-5.4c0,0,5.4-0.5,8.7-0.6c9.5-0.1,19-0.6,28.5-0.6
		C1054.4,440.5,1054.5,440.5,1054.5,440.5z M1017.9,442.1C1017.7,442,1017.9,442.1,1017.9,442.1z"/>
	<path class="st12" d="M1077.8,418.9c2.8,0,5.5,0,8.2,0l1.8,0c3.1,0.4,3.2,2.1,3.2,3.4c0.1,1.9-1.6,3.6-3.6,3.7
		c-14.3,0-28.5,0.8-43,2.2c-8.1,0.8-16.2,1-24.3,0.8c-2-0.1-3.9-0.1-5.9,0.1c0,0-4.3-0.9-3.9-4c0.5-3.5,6.2-3.4,11.1-3.2
		C1040.3,422.7,1058.8,418.9,1077.8,418.9z"/>
	<path class="st8" d="M1043.6,463.3c1.9,0.2,2.1,0.7,2.6,1.3c1.6,2,0.2,5.6-2.6,5.8c-8.4,0.5-17.8,0.2-25.7,0.4
		c-0.9,0-2.1-0.1-2.1-0.1c-0.5,0-0.6,0.1-0.9,0.1c-3.3,0.1-5.7-5.9-0.8-7.1c1.3-0.3,3.2-0.1,3.2-0.1c8.7,0,17.4-0.3,26.2-0.4
		C1043.5,463.3,1043.5,463.3,1043.6,463.3z M1016.5,470.4C1016.5,470.4,1016.5,470.4,1016.5,470.4z M1016.6,470.3
		C1016.9,470.2,1016.7,470.3,1016.6,470.3z"/>
	<path class="st8" d="M982.2,449.4c-0.3,0.9-0.7,1.8-1.1,2.7C981.5,451.2,981.9,450.3,982.2,449.4z M979.8,454
		c-0.4,0.6-0.9,1.2-1.5,1.7C978.9,455.1,979.4,454.6,979.8,454z M989.1,423.7c-5.9-5.9-13.6-8.8-21.3-8.8c-0.5,0-1,0-1.4,0
		c0,0,0,0-0.1,0c-1.9,0.1-3.8,0.4-5.7,0.8c-0.5,0.1-0.9,0.2-1.4,0.4c-0.4,0.1-0.8,0.2-1.2,0.4c-0.7,0.2-1.3,0.5-1.9,0.7
		c-0.4,0.2-0.8,0.3-1.2,0.5c-0.4,0.2-0.9,0.4-1.3,0.7c-0.4,0.2-0.9,0.5-1.3,0.7c-2.1,1.3-4.1,2.8-5.8,4.6
		c-11.8,11.8-11.8,30.9,0,42.7c11.8,11.8,30.9,11.8,42.7,0c1.5-1.5,2.8-3.1,4-4.9c0.2-0.4,0.5-0.7,0.7-1.1c0.2-0.4,0.4-0.8,0.6-1.1
		c0.2-0.4,0.4-0.7,0.6-1.1c0.5-1,0.9-1.9,1.2-2.9c0.2-0.5,0.3-0.9,0.5-1.4c0.1-0.3,0.2-0.6,0.3-0.9c0.2-0.8,0.4-1.6,0.5-2.4
		c0.1-0.4,0.1-0.7,0.2-1.1c0.1-0.9,0.2-1.9,0.3-2.8v-0.1c0-0.5,0-1,0-1.4C997.9,437.3,994.9,429.6,989.1,423.7z M982.5,448.2
		c-0.1,0.4-0.2,0.8-0.3,1.2c0,0,0,0.1,0,0.1c-0.3,0.9-0.7,1.8-1.1,2.7c-0.1,0.2-0.2,0.4-0.4,0.7c-0.2,0.4-0.5,0.8-0.8,1.2
		c0,0,0,0,0,0c-0.4,0.6-0.9,1.2-1.5,1.7c-5.9,5.9-15.4,5.9-21.3,0c-5.9-5.9-5.9-15.5,0-21.3c0.7-0.7,1.5-1.3,2.3-1.9
		c0.2-0.1,0.4-0.3,0.6-0.4c0.2-0.1,0.4-0.3,0.7-0.4c0.2-0.1,0.4-0.2,0.7-0.3c0.2-0.1,0.4-0.2,0.7-0.3c0.4-0.2,0.8-0.3,1.1-0.4
		c0.1,0,0.2-0.1,0.3-0.1c0.3-0.1,0.5-0.1,0.7-0.2c0.5-0.1,1-0.2,1.6-0.3c0.1,0,0.2,0,0.3,0c0.5-0.1,0.9-0.1,1.4-0.1
		c4-0.1,8,1.4,11,4.4c3,3,4.4,6.8,4.4,10.7C982.8,446.1,982.7,447.1,982.5,448.2z"/>
	<path class="st12" d="M997.9,445c0,0.5,0,1,0,1.4v0.1c0,0.9-0.1,1.9-0.3,2.8c0,0.4-0.1,0.7-0.2,1.1c-0.1,0.8-0.3,1.6-0.5,2.4
		c-0.1,0.3-0.2,0.6-0.3,0.9c-0.1,0.5-0.3,0.9-0.5,1.4c-0.4,1-0.8,2-1.2,2.9c-0.2,0.4-0.4,0.8-0.6,1.1c-0.2,0.4-0.4,0.8-0.6,1.1
		c-0.2,0.4-0.4,0.7-0.7,1.1c-1.1,1.8-2.5,3.4-4,4.9c-11.8,11.8-30.9,11.8-42.7,0c-11.8-11.8-11.8-30.9,0-42.7
		c1.8-1.8,3.7-3.3,5.8-4.6c0.4-0.2,0.8-0.5,1.3-0.7c0.4-0.2,0.9-0.4,1.3-0.7c0.4-0.2,0.8-0.4,1.2-0.5c0.6-0.3,1.3-0.5,1.9-0.7
		c0.4-0.1,0.8-0.3,1.2-0.4c0.5-0.1,0.9-0.3,1.4-0.4c1.8-0.5,3.8-0.7,5.7-0.8c0,0,0,0,0.1,0c0.5,0,1,0,1.4,0v15.1
		c-1.2,0-2.4,0.2-3.6,0.4c-0.3,0.1-0.5,0.1-0.7,0.2c-0.1,0-0.2,0.1-0.3,0.1c-0.4,0.1-0.8,0.3-1.1,0.4c-0.2,0.1-0.5,0.2-0.7,0.3
		c-0.2,0.1-0.4,0.2-0.7,0.3c-0.2,0.1-0.4,0.2-0.7,0.4c-0.2,0.1-0.4,0.3-0.6,0.4c-0.8,0.5-1.6,1.2-2.3,1.9c-5.9,5.9-5.9,15.5,0,21.3
		c5.9,5.9,15.5,5.9,21.3,0c0.5-0.5,1-1.1,1.5-1.7c0,0,0,0,0,0c0.3-0.4,0.5-0.8,0.8-1.2c0.1-0.2,0.3-0.4,0.4-0.7
		c0.5-0.9,0.8-1.8,1.1-2.7c0,0,0-0.1,0-0.1c0.1-0.4,0.2-0.8,0.3-1.2c0.2-1,0.3-2.1,0.3-3.1L997.9,445L997.9,445z"/>
	<circle class="st14" cx="616.1" cy="221" r="7.5"/>
	<circle class="st14" cx="642.2" cy="219.7" r="7.5"/>
	<circle class="st14" cx="668.2" cy="218.3" r="7.5"/>
	<path class="st15" d="M732,291c-33.5-1.6-68.4-0.7-103.1,0c-2.4,18.2-2.3,37.1,0,56.4c37.6,0.1,72,0.1,103.1,0
		C734.1,330.6,734.1,311.8,732,291z"/>
	<path class="st8" d="M713.6,309.6c0-2.5-2.1-4.6-4.6-4.6c-12.2,0-45.2,0-57.4,0c-2.5,0-4.6,2.1-4.6,4.6c0,0,0,0,0,0
		c0,2.5,2.1,4.6,4.6,4.6c12.2,0,45.2,0,57.4,0C711.6,314.2,713.6,312.2,713.6,309.6C713.6,309.6,713.6,309.6,713.6,309.6z"/>
	<path class="st8" d="M695.6,328c0-2.5-2.1-4.6-4.6-4.6c-9.3,0-30.1,0-39.3,0c-2.5,0-4.6,2.1-4.6,4.6c0,0,0,0,0,0
		c0,2.5,2.1,4.6,4.6,4.6c9.3,0,30.1,0,39.3,0C693.5,332.6,695.6,330.6,695.6,328C695.6,328,695.6,328,695.6,328z"/>
</g>
<g>
	<path class="st16" d="M406,335.1c0-1.5-0.6-2.9-1.6-4c-1.1-1.1-2.5-1.6-4-1.6H273.9c-1.5,0-2.9,0.6-4,1.6c-1.1,1-1.6,2.5-1.6,4
		v63.1c0,1.5,0.6,2.9,1.6,4c1.1,1.1,2.5,1.6,4,1.6h126.5c1.5,0,2.9-0.6,4-1.6c1.1-1.1,1.6-2.5,1.6-4C406,384.4,406,348.9,406,335.1z
		"/>
	<path class="st8" d="M398.7,341.7c0-2.9-2.3-5.2-5.2-5.2c-15.2,0-59.1,0-74.3,0c-2.9,0-5.2,2.3-5.2,5.2c0,4.5,0,11,0,15.5
		c0,2.9,2.3,5.2,5.2,5.2h74.3c2.9,0,5.2-2.3,5.2-5.2C398.7,352.7,398.7,346.2,398.7,341.7z"/>
	<path class="st8" d="M304.7,341.7c0-1.4-0.6-2.7-1.5-3.7c-1-1-2.3-1.5-3.7-1.5c-5.1,0-12.8,0-17.9,0c-1.4,0-2.7,0.6-3.7,1.5
		c-1,1-1.5,2.3-1.5,3.7c0,4.5,0,11,0,15.5c0,1.4,0.6,2.7,1.5,3.7c1,1,2.3,1.5,3.7,1.5c5.1,0,12.8,0,17.9,0c1.4,0,2.7-0.6,3.7-1.5
		c1-1,1.5-2.3,1.5-3.7C304.7,352.7,304.7,346.2,304.7,341.7z"/>
	<path class="st8" d="M304.7,376.1c0-1.4-0.6-2.7-1.5-3.7c-1-1-2.3-1.5-3.7-1.5c-5.1,0-12.8,0-17.9,0c-1.4,0-2.7,0.6-3.7,1.5
		c-1,1-1.5,2.3-1.5,3.7c0,4.5,0,11,0,15.5c0,1.4,0.6,2.7,1.5,3.7c1,1,2.3,1.5,3.7,1.5c5.1,0,12.8,0,17.9,0c1.4,0,2.7-0.6,3.7-1.5
		c1-1,1.5-2.3,1.5-3.7V376.1z"/>
	<path class="st8" d="M398.7,375.1c0-2.9-2.3-5.2-5.2-5.2c-15.2,0-59.1,0-74.3,0c-2.9,0-5.2,2.3-5.2,5.2c0,4.5,0,11,0,15.5
		c0,2.9,2.3,5.2,5.2,5.2h74.3c2.9,0,5.2-2.3,5.2-5.2C398.7,386.1,398.7,379.6,398.7,375.1z"/>
	<circle class="st17" cx="398.7" cy="332.2" r="18.2"/>
	<path class="st8" d="M406.1,325c1.6,0.1,2.8,2.3,1.5,3.6c0,0-0.1,0.1-0.1,0.1l-9.6,9.6c-0.3,0.3-0.4,0.3-0.6,0.4
		c-0.7,0.3-1.7,0.2-2.3-0.3c-0.1-0.1-0.1-0.1-0.2-0.1l-5.1-5.1c-1-1-0.7-2.9,0.6-3.5c0.8-0.4,1.8-0.2,2.5,0.4l3.5,3.5l8.1-8.1
		C404.5,325.6,405.3,325,406.1,325z"/>
</g>
<g>
	<path d="M360.3,519.1c-0.3,1.9,0.2,3.8,1.4,5.2c1.2,1.4,3,2.3,4.9,2.3c35.7,0,184.6,0,184.6,0v6.1h-188c-3.1,0-5.7,2.2-6.3,5.3
		c-0.8,4.6-2,11.4-3,16.6c-0.3,1.9,0.2,3.8,1.4,5.2c1.2,1.4,3,2.3,4.9,2.3h184.2v6.1H356.8c-3.1,0-5.7,2.2-6.3,5.3
		c-0.8,4.6-2,11.4-3,16.6c-0.3,1.9,0.2,3.8,1.4,5.2s3,2.3,4.9,2.3c35.6,0,183.8,0,183.8,0v6.1H350.4c-3.1,0-5.7,2.2-6.3,5.3
		c-0.8,4.6-2,11.4-3,16.6c-0.3,1.9,0.2,3.8,1.4,5.2c1.2,1.5,3,2.3,4.9,2.3c35.6,0,183.4,0,183.4,0v6.1H344c-3.1,0-5.7,2.2-6.3,5.3
		c-0.8,4.6-2,11.4-3,16.6c-0.3,1.9,0.2,3.8,1.4,5.2c1.2,1.5,3,2.3,4.9,2.3c35.5,0,183,0,183,0v6.1H337.6c-3.1,0-5.7,2.2-6.3,5.2
		c-2.4,13.7-8.9,49.3-8.9,49.3h375.1v6.1H321.3l-43.1,239.4h-6.1l43.1-239.4h-12c-0.8,0-1.6-0.3-2.1-0.9c-0.6-0.6-0.9-1.4-0.9-2.2
		l0,0c0-1.7,1.3-3.1,3-3.1c4.7,0,13.1,0,13.1,0s5.8-32.1,8.5-47.1c0.3-1.9-0.2-3.8-1.4-5.2c-1.2-1.5-3-2.3-4.9-2.3
		c-4.6,0-10.3,0-13.8,0c-1.6,0-3-1.4-3-3.1l0,0c0-0.8,0.3-1.6,0.9-2.2c0.6-0.6,1.3-0.9,2.1-0.9c4.3,0,12,0,17.2,0
		c3.1,0,5.8-2.2,6.3-5.2c0.8-4.6,2.1-11.4,3-16.6c0.3-1.9-0.2-3.8-1.4-5.2c-1.2-1.5-3-2.3-4.9-2.3c-4.5,0-10,0-13.4,0
		c-0.8,0-1.5-0.3-2.1-0.9c-0.6-0.6-0.9-1.4-0.9-2.2l0,0c0-1.7,1.4-3.1,3-3.1c4.2,0,11.7,0,16.8,0c3.1,0,5.7-2.2,6.3-5.3
		c0.8-4.6,2-11.4,3-16.6c0.3-1.9-0.2-3.8-1.4-5.2c-1.2-1.4-3-2.3-4.9-2.3c-4.4,0-9.7,0-12.9,0c-0.9,0-1.6-0.3-2.2-0.9
		c-0.6-0.6-0.9-1.3-0.9-2.2l0,0c0-0.8,0.3-1.6,0.9-2.2c0.6-0.6,1.3-0.9,2.2-0.9c4,0,11.3,0,16.3,0c3.1,0,5.7-2.2,6.3-5.3
		c0.8-4.6,2-11.4,3-16.6c0.3-1.9-0.2-3.8-1.4-5.2c-1.2-1.4-3-2.3-4.9-2.3c-4.3,0-9.4,0-12.5,0c-1.7,0-3.1-1.4-3.1-3.1l0,0
		c0-1.7,1.4-3.1,3.1-3.1c4,0,11,0,15.9,0c3.1,0,5.7-2.2,6.3-5.3c0.8-4.6,2-11.4,3-16.6c0.3-1.9-0.2-3.8-1.4-5.2
		c-1.2-1.4-3-2.3-4.9-2.3c-4.2,0-9.1,0-12.1,0c-1.7,0-3.1-1.4-3.1-3.1l0,0c0-0.8,0.3-1.6,0.9-2.2c0.6-0.6,1.3-0.9,2.2-0.9
		c3.9,0,10.7,0,15.5,0c3.1,0,5.7-2.2,6.3-5.3c0.2-1.1,0.4-2.2,0.5-3.1c0.2-1.1,1.2-1.9,2.3-1.9c0.5,0,1,0,1.4,0
		c0.7,0,1.4,0.3,1.8,0.8C360.2,517.8,360.4,518.4,360.3,519.1L360.3,519.1z"/>
	<path class="st18" d="M483,862.3c0,0-5.8,7.8-10.7,15.9c-4.9,8.1-26.7,44.8-28.9,55.1c-0.2,5.7,49.4,35.2,62,41
		c13.2,3.1,37.2,1.4,42,0.7c4.7-0.7,0.4-7.4-10.1-10.2c-10.5-2.8-20.3-12.6-28.5-22.3c-8.2-9.7-6.2-12.7,1.7-24.7
		c7.9-12,13.3-19.6,13.3-19.6S497.2,853.7,483,862.3z"/>
	<path class="st18" d="M793.6,898.8c0,0-8.1,1.7,0.1,14.6c8.2,13,23.1,36.9,25.8,42.4c2.8,5.5-2.1,14.6,14.8,16.2
		c16.9,1.6,96.4,5,103.9,5.5c7.5,0.4,4.5-9.6-12.2-16.2c-16.8-6.7-37-15.8-45.5-26.5c-8.5-10.7-35.1-50.6-40.1-57
		C835.3,871.5,793.6,898.8,793.6,898.8z"/>
	
		<linearGradient id="SVGID_4_" gradientUnits="userSpaceOnUse" x1="0" y1="1080.0217" x2="1" y2="1080.0217" gradientTransform="matrix(-203.5053 -207.2412 207.2412 -203.5053 -222986.3281 220671.0313)">
		<stop  offset="0" style="stop-color:#213285"/>
		<stop  offset="1" style="stop-color:#06124C"/>
	</linearGradient>
	<path class="st19" d="M875.3,868.1c0,0-68.9,39.6-81.7,44.6c-8.6-13.3-21.7-28.5-41.8-46.2c-20.1-17.7-55.1-51.9-79-82.2
		c-23.9-30.3-37-36.2-37-36.2l-49.5-103.3c0,0,91.8-14.2,158.5,63.1C809.3,782.7,875.3,868.1,875.3,868.1z"/>
	<path class="st20" d="M382.3,671.4c0,0-4.4,2.7-6.4,11.3c-2,8.6,0.9,43.9,22.7,48c0,0,118-0.6,128.3-0.5c8.5,0.1,1.8,12-4.9,23.2
		c-6.8,11.2-21.3,48.7-32,76.6c-12,31.3-20.1,52-20.1,52s72.4,25.3,81.1,29.2c0,0,0-7.6,11-20.4c11-12.8,16.9-40.1,33.5-66
		c16.5-25.9,56.4-79,62.5-120.6c6-41.6-30.5-57.2-65.4-59.8c-34.9-2.7-42.3-2-42.3-2l-101.4-28.8L382.3,671.4z"/>
	<path class="st21" d="M551.9,675.3c0,0,13.8,7.6,23.8,9.3c10,1.7,36.7,4.9,46.6,22.2c9.9,17.3-9.9,22.4-29.8,18.8
		c-19.9-3.7-23.5-11-38.6-8c-15.1,3-17.8,2.6-21.5,1C528.8,717,541.3,672.7,551.9,675.3z"/>
	<path class="st21" d="M799.2,586.2l1-6.7c0,0,14.8-4.3,22.6-10c7.8-5.7,25.5-19,35.3-13.5c9.9,5.5-8.8,17.5-11.3,22.8
		c-2.5,5.3,1.9,6.7,25.6,1.8c23.7-4.9,36.4-6.2,30,11.4c-6.4,17.5-51.3,40.6-76.3,39.9C801.1,631.4,799.2,586.2,799.2,586.2z"/>
	<path class="st18" d="M653.7,674.6c18.3-1.5,38.7-7.1,55.4-10.6c31.5-6.5,61.3-13.5,77.6-17.8c16.4-4.3,34.8-13.8,39.5-13.4
		c0,0,2.6-36-26-53.2c0,0-73.4,18.3-103.7,24.8c-30.3,6.5-44,12.2-58-14.4c-15.5-29.4-26.9-98.9-63.4-108l-48.4-20
		c0,0-3.4,1.2-8.8,0.9c-5.4-0.3-49.7-9.5-81.1,35.7c-31.4,45.2-62.6,96.2-61,122.2c0.8,13.6,10.9,23.7,10.9,23.7
		s-9.8,19.2-10.9,37.9l42-13.4c0,0,32.4,19.3,66.4,32c33.9,12.6,48.1,17.8,48.1,17.8s16.2-29.2,19.5-44.2c0,0-30.9-22.4-44.5-30
		c0,0,29.5-1.2,43.2-1.7l-0.3-0.6c0,0,1.4-0.1,5.8,0c1.4-4.7,12.8-42.7,17.9-56.6c0,0,13.6,34.5,27.9,59.6
		C623.7,648.5,644.5,657.2,653.7,674.6z"/>
	
		<linearGradient id="SVGID_5_" gradientUnits="userSpaceOnUse" x1="0" y1="1079.8416" x2="1" y2="1079.8416" gradientTransform="matrix(102.5 -21.0325 -21.0325 -102.5 23402.0566 111316.6641)">
		<stop  offset="0" style="stop-color:#4E66DE"/>
		<stop  offset="1" style="stop-color:#526CF1"/>
	</linearGradient>
	<path class="st22" d="M654.5,607.7c10.1,4.7,22.7,0.8,42-3.3c30.3-6.5,103.7-24.8,103.7-24.8c28.6,17.2,26,53.2,26,53.2
		c-4.2-0.3-19.3,7.1-34.1,11.8c-8.6-7.3-25.1-17.9-49.3-19.7C708.1,622.4,668.1,625.9,654.5,607.7z"/>
	<path class="st23" d="M541.6,667.4l-8.9,12.9c0,0-77.2-44.8-84.4-54.1c-7.3-9.3,11.2-52.9,35.2-83.9c24-31-2.4,54.1,28.3,67.6
		c24.2,10.6,39.5,24.7,44.8,30.2c-0.3,1-0.5,1.7-0.6,2.2c-4.5-0.1-5.9,0-5.9,0l0.4,0.7c-13.7,0.5-43.2,1.7-43.2,1.7
		C515.9,649.5,531.4,660.1,541.6,667.4z"/>
	<path class="st23" d="M386.2,644c0.1,0,0.1,0.1,0.1,0.1c5.8,6.1,24.7,19.9,31.7,25c-0.1-0.1-0.2-0.1-0.2-0.1l-41.9,13.4
		c1.1-18.7,10.9-37.9,10.9-37.9S386.6,644.4,386.2,644z"/>
	<path class="st23" d="M574,586v-0.1c6.7-16.4,8.6-27.4,11.3-34.1c0,0,20.1,22.9,28.5,55.2c4.9,18.5,10.7,35.1,18.9,47.8
		c-9.2-4.8-19.9-7.8-30.9-9.4C588.2,621.5,575.3,589.4,574,586z"/>
	
		<linearGradient id="SVGID_6_" gradientUnits="userSpaceOnUse" x1="0" y1="1080.1425" x2="1" y2="1080.1425" gradientTransform="matrix(52.6418 140.716 140.716 -52.6418 -151551.0313 57395.293)">
		<stop  offset="0" style="stop-color:#4E66DE"/>
		<stop  offset="1" style="stop-color:#7082DD"/>
	</linearGradient>
	<path class="st24" d="M509.3,710.3c-2.6-3.1-5.5-6.8-8.8-11.1c-22.4-28.9-49.3-50.4-65.7-63.6s-36.9-27.9-8-74.8
		s40.4-51.5,52.2-51.4c11.9,0.1,15.7,13.5,11.6,21.1c0,0-17.2,28-26.8,46c-9.7,18.1-19.9,31.4-12.9,36.6c6.9,5.2,48,27.1,57.4,32.1
		l0.1,0c14.1,8.1,43.4,29.4,43.4,29.4c-3.3,14.9-19.5,44.2-19.5,44.2S525.3,716.3,509.3,710.3z"/>
	<path class="st21" d="M610.7,373.8c0,0,0.4,6.1-9,8c-9.4,2-19.8-6.9-21-2.7c-1.3,4.2-4.5,17.7-5.9,20.3c-3.4-2.2-9.7-7.3-17-3.3
		c-7.3,3.9,2.1,12.4-1,17.4c-3.1,5-12.7,9.6-21.2,10.8c-0.3,0-0.7,0-1.1-0.1c0.7,5.6,0.7,10.2-0.7,13.5
		c-3.3,8.1-15.6,25.4-15.6,25.4s5.3,3.2,18.1,12c12.9,8.8,37.9,20.5,37.9,20.5s0.7-2.3,1.5-17.9c0.8-15.6,0.9-18.3,10.5-18.8
		c9.5-0.6,32.4,2.8,33.9-25.2c1.1-21.1-4.7-44.2-7.6-54.5L610.7,373.8z"/>
	<path class="st25" d="M609.2,371c-9-13.9-38.4-22.9-58.5-17.1c-21.5,6.3-24.9,21.1-21.6,40.4c2,11.4,4.4,21.8,5.4,30
		c0.4,0.1,0.8,0.1,1.1,0.1c8.5-1.2,18.1-5.8,21.2-10.8c3.1-5-6.4-13.5,1-17.4c7.3-3.9,13.6,1.1,17,3.3c1.4-2.6,4.6-16.1,5.9-20.3
		c1.3-4.2,11.7,4.7,21,2.7c9.4-2,9-8,9-8L609.2,371z"/>
	<path class="st26" d="M599.2,458.4c-3.9-0.8-11-3.5-19.4-13.2c-12.6-14.6-23.5-13.7-26.3-5.8c-2.8,7.7,5.6,23.8,22.3,34.4
		c0.7-12,1.6-14.2,10.2-14.7C589.3,458.8,594.2,459.1,599.2,458.4z"/>
</g>
<g>
	<path class="st27" d="M1153.8,894.1c0,0,8.6,32.6,10,44.3c1.4,11.7,2,13-19.2,19.3s-38.3,13-37.8,17.9c0.5,4.9,14.7,4.1,31.1,4.5
		c16.5,0.4,80.2,3.4,90.6,1.9c10.4-1.6,5.6-17.4,2.1-32.3c-3.5-14.8-7.3-42.2-7.3-42.2L1153.8,894.1z"/>
	<path class="st27" d="M1382.9,849.6c0,0,29.9,34.4,42.8,49.5c12.9,15.1,24.2,19.4,11,29.7c-13.3,10.3-66.4,51.6-78.4,57.1
		c-12,5.4-21.4,0.7-20.8-3.4s26.6-38.4,26-48.6c-3.7-9-32.2-43.3-35.3-48C1325.2,881.1,1369,840.3,1382.9,849.6z"/>
	
		<linearGradient id="SVGID_7_" gradientUnits="userSpaceOnUse" x1="0" y1="1080.0376" x2="1" y2="1080.0376" gradientTransform="matrix(-72.0659 -93.0531 93.0531 -72.0659 -99193.9219 78668.2109)">
		<stop  offset="0" style="stop-color:#4E5161"/>
		<stop  offset="1" style="stop-color:#1C223C"/>
	</linearGradient>
	<path class="st28" d="M1267.7,719.7c0,0,10.3,29.1,32.8,46.2c22.4,17.1,39.2,28.8,55.2,50.1c16,21.3,28.2,34.2,28.2,34.2
		s-69.5,46.5-73.2,48.9c0,0-12.5-9.6-16.4-16.6c-3.9-7-88.2-96.8-96.8-106c-8.6-9.2-40.2-78.4-40.2-78.4S1248.5,691.3,1267.7,719.7z
		"/>
	<rect x="1148.6" y="730.4" width="396.1" height="13.2"/>
	<path class="st29" d="M1451.6,702.9c0,0-10,22.4-26.5,27.6c-16.1,0.9-116.7,1-141.2-1.2c-24.4-2.2-80.7-21.8-92.4-15.3
		c-5.3,3,1.9,31.2,7,59.6c5,28.3,25.6,134.3,25.6,134.3s-88.1-10.8-96.1-13c-1.5-12.1-6.7-66.3-10.1-87.1
		c-3.4-20.8-11.9-32.3-13.7-44.2c-1.8-11.9-1.2-37.1-6.2-59.8c-5-22.7-7.5-54.8,31.1-76.6c38.5-21.7,187.6-17.2,187.6-17.2
		S1452.6,684.6,1451.6,702.9z"/>
	<path class="st30" d="M1393.6,655.3c30.6,19.3,58.4,39.3,57.9,47.6c0,0-9.9,22.4-26.5,27.6c-16.1,0.9-116.7,1-141.1-1.2
		c-24.5-2.2-80.8-21.8-92.4-15.3c-0.3,0.2-0.6,0.5-0.9,0.9l-0.1-0.1c0,0-9.5-44.3,113.4-32C1379.8,690.4,1386,672.2,1393.6,655.3z"
		/>
	<path class="st30" d="M1112.8,788.3c10,12.7,23.1,36.5,38.3,53.6c17.4,19.6-11.2,10.9,4.4,25.6c10,9.3,20.3,25,26.4,35.1
		c-23.8-3.1-49.7-6.6-53.9-7.7c-1.5-12.1-6.7-66.3-10-87.1C1116.7,800.2,1114.8,793.8,1112.8,788.3z"/>
	<path d="M1064.2,453.4c-3,0.8-2.8,2.6-2.7,3.8l19.1,142.6c0.4,2.2,0.8,2.5,2.8,2.9l111.4,17.5c3.5,0.3,6.3-5.5,1.1-6.7L1087,596.4
		l-18.7-140.1C1068.3,456.3,1067.5,453,1064.2,453.4z"/>
	<path class="st31" d="M1398.7,468.1c-3.9-2.6-9.3-4.6-16.7-4.1c0,0-24.2-2.2-33.3,25.4c-9.1,27.6-17.4,35.4-28.5,52.3
		c-11.1,17-22.5,36.5-22.5,36.5s-37.7-21.5-51-25.8c0,0-15.1,20.4-20.8,38.9c-3.8,12.4,14.7,22.3,27.4,27.6
		c-12.3,27.1,3.3,44,3.3,44c9.2,0,76.4,2.9,101.2,3.3c12,0.2,20.8-1.4,26.8-3.1l0.2,0.1c0,0,10.4,3,17,11.5
		c6.6,8.5,15.1,20.8,30.2,27.4c15.1,6.6,25,5.1,25,5.1c-1.7-8.1-1.2-21,5.8-38.8c7.1-17.8,9.2-34.3,4.9-60.2
		c-4.2-25.9,2.4-31.7,10-53.7c7.6-22,7.1-46.6-8.1-65.3c-15.3-18.7-42.3-26.3-42.3-26.3l-22.2-4.2L1398.7,468.1z"/>
	<path class="st32" d="M1383.8,663.3c38.2-13.6,51.5-40.3,69-77.8c13.7-29.5,22-31.5,25-31c-7.6,21.9-14.2,27.8-10,53.7
		c4.2,25.9,2.1,42.3-4.9,60.1c-7.1,17.8-7.5,30.7-5.8,38.9c0,0-9.9,1.6-25-5.1c-15.1-6.6-23.7-18.9-30.3-27.4
		c-6.6-8.5-17-11.5-17-11.5l-0.2-0.1C1384.4,663.1,1384.1,663.2,1383.8,663.3z"/>
	<path class="st32" d="M1245.2,554.5c22.8,23.6,29,60.6,52.3,24.3c7.6-11.8,46-43.8,53.7-54.9c0,0-3.4,6.5-4.3,13.3
		c-0.8,6.8-5.7,14.5-11.4,21.6c-5.6,7.1-16.1,29.7-29.5,48.1c-0.1,0.1-0.2,0.2-0.3,0.4c-13.9,0.5-40.1,1.7-47.2,3.9
		c-3.1,1-5.1,3.8-6.5,7.2c-9-3.8-20.3-9.9-24.7-17.4c-0.4-0.8-0.8-1.5-1.1-2.3c-0.9-2.3-1.1-4.8-0.3-7.3
		C1230.5,576.4,1241.2,560.2,1245.2,554.5z"/>
	
		<linearGradient id="SVGID_8_" gradientUnits="userSpaceOnUse" x1="0" y1="1080.0991" x2="1" y2="1080.0991" gradientTransform="matrix(130.5877 -100.7099 100.7099 130.5877 -107470.875 -140408.8594)">
		<stop  offset="0" style="stop-color:#B0B1B6"/>
		<stop  offset="1" style="stop-color:#9396A4"/>
	</linearGradient>
	<path class="st33" d="M1414.9,519.6c0,0-14.9,43.6-33.1,67.6c-18.2,24-79,19-95,21.9c0,0,18.2,10.1,30.3,17.4
		c12.2,7.2,58.8,18,89.3-26c30.5-43.9,49.1-82,34.7-95.2C1426.9,492.1,1419.7,509.5,1414.9,519.6z"/>
	<path class="st34" d="M1246.5,552.7c-2.4-1.2-30.7-14.8-44-13.8c-13.9,1.1-30.3,9.5-30.8,25.6c-0.5,16.1,7.5,10.5,21.6,12.6
		c12.3,1.8,28.8,17.9,32.3,19.3c-0.3-1.6-0.2-3.3,0.3-5.1C1231.3,574.1,1244.8,555.2,1246.5,552.7z"/>
	<path class="st35" d="M1258,611.5c0,0-9,13.8-9.4,27c-0.3,13.3,4.9,18.4,4.9,18.4s-11.7,5-21.7-1.5c-10-6.6-15.5-30.4-25.6-34.6
		c-10.1-4.2-23.2-5.5-19.8-24.7c3.4-19.2,27.8-18.4,47.4-3.8C1253.4,607,1256.2,610.6,1258,611.5z"/>
	<path class="st35" d="M1431.1,464.1c0,0-4-8-4.7-17.4s7-14.8,17.8-27.2c10.8-12.4,11-36.6-7-51.1c-18.1-14.5-45.9-14.2-57.8-3.2
		c-12,11-31.5,50.9-24.3,63c7.2,12.1,21.6,19.5,22.8,23.5c1.2,4-1.5,19.3-1.5,19.3S1398.5,481.3,1431.1,464.1z"/>
	<path class="st34" d="M1358.3,432.9c5.1,6,11.3,5.2,25,2.4c14.2-2.8,22.4-0.8,15.3,9.1c-7.2,9.8-20.8,15.6-20.8,15.6l0,0
		c0.4-3.4,0.5-6.7,0-8.2C1376.8,448.2,1365.9,442.2,1358.3,432.9z"/>
	<path class="st36" d="M1426.7,442.5c1.5-7.1,8.4-12.6,17.5-23c10.8-12.4,11-36.6-7-51.1c-17-13.6-42.7-14.2-55.6-5.1
		c0,0.1-0.1,0.2-0.1,0.3c-1,5.8,4.2,7.9,10.2,8c6,0.1,6.5,4.8,6,13.1c-0.5,8.3,1.8,9.1,10.8,9.8c8.9,0.6,15.4,8.3,12.1,15.8
		c-3.3,7.5-10.9,9-10.9,9C1412.2,433.2,1421.8,440,1426.7,442.5z"/>
</g>
<g>
	<path d="M1661.2,862.9c0,0-5,60.5-62,65.9c-57.1,5.4-111.1-54.4-112.8-60.8C1484.6,861.7,1590.1,793.1,1661.2,862.9z"/>
	<path class="st37" d="M1602.2,647.6c0,0,7.8-1.7,18.5,2c5.1,1.8,21.7,9.3,36.9,16.2c20.3,8.6,36.7,24.5,45.9,44.6
		c12.3,26.8,28.8,64.8,33.6,83.8l-24.9,3.6l-23.9,75.3L1473.6,861l-0.9-87c0,0,17.3-50.9,28.4-80.8c7.3-19.7,24.4-34.1,45.1-37.8
		c9-1.6,16.3-3,16.3-3L1602.2,647.6z"/>
	<path class="st38" d="M1681,680.4c-8.6-3.1-15.3-0.5-6.9,22.7c16.4,45.7,30.9,80.8,19,95.5c-4.7,5.9,2.5,12.8,13.4,17.1l5.7-17.9
		l24.9-3.6c-4.8-19-21.4-57-33.7-83.8C1698.1,698.8,1690.5,688.6,1681,680.4z"/>
	<path class="st38" d="M1663.7,803.5c0,0-2.2-33.6-6.6-50c-4.4-16.4-16.7,15-22.6,28.2c-6,13.2-10.1-3.1-24.4,15.2
		C1595.7,815.2,1656.6,819.9,1663.7,803.5z"/>
	<path class="st38" d="M1472.6,775.4c14.8,11.4,41-4.5,41-4.5s8.1-47.1,8.5-62.3c0.4-13.7-25.8,29.6-32.2,15.5
		c-8.8,25.1-17.3,49.9-17.3,49.9V775.4z"/>
	<polygon class="st39" points="1680.8,861.4 1618.2,861.4 1622.4,871 1685,871 	"/>
	<path class="st40" d="M1679.3,931.5c-35.3-8.5-92.6-23.4-92.6-23.4s-56.8-54.1-115.9-65.5c-59.1-11.4-85.3,23-56.6,62.2
		c28.8,39.2,115.2,60,115.2,60l115.7,0.7C1652.6,953,1666.8,940.7,1679.3,931.5z"/>
	<path class="st41" d="M1679.3,931.5c-12.5,9.3-26.7,21.5-34.2,34l2.7,0c0,0,24.3,21.9,63.2,24.6c39,2.7,62.9-10.9,55-30.9
		c-8-20-45.4-19.4-61.8-22.1C1700.1,936.4,1690.9,934.3,1679.3,931.5z"/>
	<path class="st42" d="M1544.6,922.3c0,0-81.6-13.1-101.5-41.8c-20-28.7,18.5-44,70.5-17.6c52,26.5,66.6,44,66.6,44L1544.6,922.3z"
		/>
	<path class="st42" d="M1485.7,938.4c-3.3,4.7-14.9,24.7,7.9,41.3v0c13.1,2.3,27.6,5.1,43.2,4.9c29.9-0.4,95.7-1.2,175.3-38.3
		c82-38.3,75.4-108.3,6-103.5c-25.8,1.8-13.6,2.2-42.4,16.6c-48.6,24.3-139.9,68.1-189.3,78L1485.7,938.4z"/>
	<path class="st40" d="M1741.3,844.3c8.4,3,16.4,9.7,18.7,23.8c5.3,32.9-56.7,40.7-109,47.3c-52.2,6.6-77.1,26.4-109.5,48
		c-22.7,15.2-43.8,11.1-59.3,3.3c2,4.3,5.6,8.8,11.4,13v0c13.1,2.3,27.6,5.1,43.2,4.9c29.9-0.4,95.7-1.2,175.3-38.3
		C1783.7,912.8,1787.7,855.2,1741.3,844.3z"/>
	<path class="st43" d="M1725.8,795.8c0,0,1.8,14.6,3.7,31c1.3,10.4-2.5,20.9-10.1,28.1c-7.6,7.3-18.2,10.5-28.5,8.8
		c-50.8-8.4-127.5-21.1-127.5-21.1l2.9-39.6l98.1-0.2L1725.8,795.8z"/>
	<path class="st44" d="M1626.9,600c0,0,27.4-27.3,17.3-52c-10.1-24.7-37.7-20.1-49.9-25.4c-12.2-5.3-8.4-35-41.5-39.7
		c-33.1-4.6-51.9,54.1-12.7,90.9C1540.1,573.8,1614.4,605.4,1626.9,600z"/>
	<path class="st43" d="M1570.5,545.4c0,0-12.4,11.6-21.1,13.5c0,0-18.5,23.8-20.8,47.8c-2.3,24,16.4,29.2,30.3,33
		c5.1,1.5,1.6,7.2-1.2,13.6c0,0,1.1,12.2,11.4,18.2c10.4,6,27.4-0.9,39.5-11.1c12.2-10.1,13.7-10.3,13.7-10.3s-13.6-5.1-16-12.3
		c-2.5-7.2,3.4-19.6,3.4-19.6s7.6,6.6,15.5,0c7.8-6.6,8.5-24.2-11.1-23.6c0,0-11.9-3.1-9-19.2
		C1605.1,575.6,1576.9,561.5,1570.5,545.4z"/>
	<path class="st45" d="M1609.7,618.3C1609.7,618.3,1609.2,620.3,1609.7,618.3c-7-2.2-14.4-4-25.6,6.1c-11.3,10.2-21.4,15.5-38,11
		l-0.9-0.3c0.5,0.2,1.1,0.5,1.6,0.7c2,0.7,4.3,1.4,6.5,2.3c1.9,0.6,3.8,1.1,5.6,1.6c1.2,0.3,1.9,0.9,2.2,1.6
		c0.7,0.3,1.3,0.6,1.8,0.9c9.5,5.1,6,8.6,15.6,13.2c7.3,3.5,13.5,8.3,16.4,13.9c4.8-2.3,9.6-5.4,13.7-8.9
		c12.2-10.1,13.7-10.3,13.7-10.3s-13.6-5.1-16-12.3C1603.8,630.7,1609.7,618.3,1609.7,618.3z"/>
	<path class="st46" d="M1422.9,779.7c-1.5-3.4-1.1-7.3,0.9-10.4c2-3.1,5.5-5,9.1-5c32.4,0,102.8,0,130.9,0c7.3,0,13.9,4.3,16.8,11
		c11.9,27.3,41.7,95.7,41.7,95.7h-147.7c-7.3,0-13.9-4.3-16.8-11C1449.5,840.9,1432.4,801.6,1422.9,779.7z"/>
	<path class="st47" d="M1484,936.8c-11.1-2.7-57-12.9-86-5.1c-33.2,9-27.7,41.7-6.8,49.5c13.8,5,51-1.9,70.4-4.3
		c9.2-1.2,20,0.7,32,2.8v0c-26.1-19-7.2-42.3-7.2-42.3L1484,936.8z"/>
	<path class="st41" d="M1479.8,956.7c-5.3,4.2-12.5,7.4-20.7,5.2c-17.7-4.8-39.5,2.3-56.6,8.2c-8.9,3.1-17.9,2-25-0.7
		c2.9,5.2,7.7,9.5,13.7,11.8c13.8,5,51-1.9,70.4-4.3c9.2-1.2,20,0.7,32,2.8v0C1483.2,972.1,1480,963.9,1479.8,956.7z"/>
</g>
</svg>
